<svg width="425" height="128" viewBox="0 0 425 128" fill="none" xmlns="http://www.w3.org/2000/svg">
<path d="M368.74 43.627C367.266 40.0156 364.668 39.0905 360.975 39.3568C356.807 39.6573 352.597 39.426 348.084 39.426C348.084 49.3846 348.084 59.0235 348.084 68.9155C345.072 68.9155 342.372 68.9155 339.42 68.9155C339.42 46.8394 339.42 24.6757 339.42 2.09151C345.661 2.09151 351.882 2.04014 358.101 2.10743C363.275 2.1634 368.536 1.83648 373.601 2.60351C383.493 4.1013 390.47 11.0702 391.106 19.1777C391.783 27.8136 386.541 34.8352 376.841 38.2848C376.506 38.4041 376.169 38.5198 375.383 38.7947C382.048 48.8428 388.648 58.793 395.533 69.1716C392.833 69.1716 390.694 69.0439 388.581 69.2079C386.518 69.3681 385.35 68.6547 384.259 66.9693C379.231 59.2046 374.032 51.5385 368.74 43.627ZM382.318 19.1682C380.896 13.8414 376.963 10.0788 371.343 9.81898C363.673 9.46441 355.97 9.7305 348.231 9.7305C348.231 17.1744 348.231 24.3865 348.231 31.6748C356.067 31.6748 363.657 31.9601 371.211 31.5911C378.166 31.2515 382.377 26.4182 382.318 19.1682Z" fill="black"/>
<path d="M282.395 31.8255C290.468 31.8255 298.179 31.8255 306.322 31.8255C306.322 21.977 306.322 12.2536 306.322 2.3109C309.443 2.3109 312.14 2.3109 314.943 2.3109C314.943 24.5462 314.943 46.7475 314.943 69.0631C312.197 69.0631 309.57 69.0631 306.525 69.0631C306.525 59.2492 306.525 49.5162 306.525 39.626C291.959 39.626 277.812 39.626 263.338 39.626C263.338 49.4446 263.338 59.0811 263.338 68.9457C260.319 68.9457 257.613 68.9457 254.674 68.9457C254.674 46.8347 254.674 24.6736 254.674 2.29883C257.423 2.29883 260.134 2.29883 263.143 2.29883C263.143 11.9336 263.143 21.5856 263.143 31.8255C269.623 31.8255 275.828 31.8255 282.395 31.8255Z" fill="black"/>
<path d="M167.981 31.2034C164.804 51.6877 185.345 67.6142 206.895 61.2738C211.743 59.8473 216.323 56.7644 220.213 53.5612C222.808 51.4238 225.026 50.2115 228.355 50.5298C230.12 50.6986 231.917 50.5597 234.114 50.5597C230.103 58.0121 224.025 62.7384 216.694 66.2171C200.358 73.9684 180.103 70.6774 167.406 58.2201C152.59 43.6836 155.032 20.5631 172.651 8.56007C190.328 -3.48224 214.859 -1.13228 229.456 14.0348C230.72 15.3483 231.773 16.8433 233.426 18.8692C229.334 18.8692 225.99 19.0757 222.701 18.7609C221.497 18.6456 220.341 17.3821 219.307 16.4926C210.332 8.77394 199.857 6.53037 188.44 9.85411C177.521 13.033 170.49 20.1225 167.981 31.2034Z" fill="black"/>
<path d="M68.1623 82.8423C84.1892 82.8423 99.8543 82.8423 115.84 82.8423C115.585 83.8523 115.496 84.6086 115.206 85.2886C109.722 98.1736 104.128 111.018 98.7853 123.955C97.7577 126.443 96.1426 127.189 93.6784 127.346C86.8073 127.785 80.9173 124.295 78.601 118.354C76.439 112.809 78.4739 106.382 83.5436 102.741C88.8075 98.9617 95.8838 99.0211 101.353 102.897C101.909 103.291 102.438 103.718 103.333 104.397C103.333 101.029 103.333 98.0435 103.333 94.6858C75.6083 94.6858 47.936 94.6858 20.0161 94.6858C20.0161 71.8983 20.0161 49.4779 20.0161 26.6231C13.7372 26.6231 7.68496 26.6231 0.494141 26.6231C4.74098 22.1907 8.23899 18.518 11.7822 14.8847C12.0571 14.6028 12.6488 14.4824 13.0941 14.4807C19.4526 14.4553 25.8113 14.4634 32.516 14.4634C32.516 37.3039 32.516 59.8232 32.516 82.8423C44.5076 82.8423 56.154 82.8423 68.1623 82.8423Z" fill="black"/>
<path d="M63.8382 9.63607C61.449 9.63607 59.4196 9.63607 57.0262 9.63607C57.0262 13.3972 57.0262 16.8929 57.0262 20.3885C57.0262 23.7844 57.0262 27.1802 57.0262 30.8764C69.3144 30.8764 81.3205 30.8764 93.516 30.8764C93.516 33.4263 93.516 35.673 93.516 38.3264C81.4328 38.3264 69.3471 38.3264 57.1481 38.3264C57.1481 46.2275 57.1481 53.725 57.1481 61.4977C70.6557 61.4977 84.121 61.4977 97.8279 61.4977C97.8279 64.0917 97.8279 66.4177 97.8279 68.9566C81.5093 68.9566 65.1721 68.9566 48.5527 68.9566C48.5527 46.8706 48.5527 24.7202 48.5527 2.33472C64.2071 2.33472 79.9156 2.33472 95.7891 2.33472C95.7891 4.70461 95.7891 7.05176 95.7891 9.63607C85.1432 9.63607 74.6707 9.63607 63.8382 9.63607Z" fill="black"/>
<path d="M49.9283 101.79C57.6348 98.5199 64.2709 99.8911 68.8621 105.527C72.7484 110.297 72.7051 117.28 68.7601 122C63.4164 128.394 53.425 129.249 47.3783 123.831C40.918 118.041 41.0352 108.963 47.662 103.325C48.2831 102.797 49.0138 102.383 49.9283 101.79Z" fill="black"/>
<path d="M424.178 25.3684C424.178 40.0391 424.178 54.3678 424.178 68.9287C421.3 68.9287 418.605 68.9287 415.68 68.9287C415.68 46.8276 415.68 24.6889 415.68 2.32544C418.304 2.32544 421.008 2.32544 424.178 2.32544C424.178 9.86223 424.178 17.4443 424.178 25.3684Z" fill="black"/>
<path d="M128.954 43.1204C132.678 43.1204 136.039 43.1204 139.648 43.1204C139.648 45.5855 139.648 47.9025 139.648 50.4243C131.173 50.4243 122.688 50.4243 114.02 50.4243C114.02 48.1297 114.02 45.8946 114.02 43.1204C118.83 43.1204 123.711 43.1204 128.954 43.1204Z" fill="black"/>
</svg>
