<svg width="116" height="126" viewBox="0 0 116 126" fill="none" xmlns="http://www.w3.org/2000/svg">
<path d="M67.6681 80.5076C83.6951 80.5076 99.3601 80.5076 115.346 80.5076C115.091 81.5176 115.002 82.2739 114.712 82.9538C109.228 95.8389 103.634 108.683 98.2911 121.62C97.2636 124.108 95.6485 124.854 93.1843 125.011C86.3131 125.45 80.4232 121.96 78.1068 116.019C75.9449 110.475 77.9797 104.047 83.0495 100.407C88.3134 96.6269 95.3897 96.6864 100.859 100.563C101.415 100.956 101.944 101.383 102.839 102.063C102.839 98.6942 102.839 95.7088 102.839 92.3511C75.1142 92.3511 47.4418 92.3511 19.522 92.3511C19.522 69.5636 19.522 47.1432 19.522 24.2884C13.2431 24.2884 7.19082 24.2884 0 24.2884C4.24684 19.856 7.74485 16.1833 11.2881 12.55C11.563 12.2681 12.1546 12.1477 12.5999 12.146C18.9585 12.1206 25.3172 12.1287 32.0219 12.1287C32.0219 34.9692 32.0219 57.4885 32.0219 80.5076C44.0135 80.5076 55.6599 80.5076 67.6681 80.5076Z" fill="black"/>
<path d="M63.3441 7.30135C60.9548 7.30135 58.9254 7.30135 56.532 7.30135C56.532 11.0625 56.532 14.5582 56.532 18.0538C56.532 21.4496 56.532 24.8455 56.532 28.5417C68.8202 28.5417 80.8263 28.5417 93.0219 28.5417C93.0219 31.0916 93.0219 33.3383 93.0219 35.9917C80.9386 35.9917 68.853 35.9917 56.654 35.9917C56.654 43.8928 56.654 51.3903 56.654 59.163C70.1616 59.163 83.6269 59.163 97.3337 59.163C97.3337 61.757 97.3337 64.083 97.3337 66.6219C81.0152 66.6219 64.6779 66.6219 48.0586 66.6219C48.0586 44.5359 48.0586 22.3855 48.0586 0C63.713 0 79.4215 0 95.295 0C95.295 2.36989 95.295 4.71704 95.295 7.30135C84.6491 7.30135 74.1765 7.30135 63.3441 7.30135Z" fill="black"/>
</svg>
